<?xml version="1.0" ?><!DOCTYPE svg  PUBLIC '-//W3C//DTD SVG 1.1//EN'  'http://www.w3.org/Graphics/SVG/1.1/DTD/svg11.dtd'><svg enable-background="new 0 0 150 150" height="150px" id="Layer_1" version="1.1" viewBox="0 0 150 150" width="150px" xml:space="preserve" xmlns="http://www.w3.org/2000/svg" xmlns:xlink="http://www.w3.org/1999/xlink"><g><circle cx="75.027" cy="74.955" fill="#ABCA3A" opacity="0.1" r="75"/><path d="M75.027-0.044v150c41.42,0,75-33.578,75-75C150.027,33.534,116.447-0.044,75.027-0.044z" fill="#ABCA3A" opacity="0.1"/><circle cx="75.027" cy="74.955" fill="#ABCA3A" r="65.488"/><path d="M75.027,9.467v130.976c36.168,0,65.488-29.32,65.488-65.488C140.516,38.788,111.195,9.467,75.027,9.467z" fill="#9FBC36"/><g><path d="M9.613,72.028c-0.043,0.971-0.074,1.945-0.074,2.927c0,36.168,29.32,65.488,65.488,65.488v-5.854    C39.84,134.59,11.145,106.838,9.613,72.028z" fill="#9FBC36"/><path d="M140.441,72.028c-1.533,34.81-30.227,62.562-65.414,62.562v5.854c36.168,0,65.488-29.32,65.488-65.488    C140.516,73.973,140.484,72.999,140.441,72.028z" fill="#95B132"/></g></g><g><path clip-rule="evenodd" d="M106.868,58.68c-2.915,0-5.278,2.4-5.278,5.362v20.956   c0,2.961,2.363,5.362,5.278,5.362c2.916,0,5.28-2.401,5.28-5.362V64.042C112.148,61.08,109.784,58.68,106.868,58.68 M43.185,58.68   c-2.914,0-5.278,2.4-5.278,5.362v20.956c0,2.961,2.364,5.362,5.278,5.362c2.917,0,5.28-2.401,5.28-5.362V64.042   C48.465,61.08,46.102,58.68,43.185,58.68" fill="#FFFFFF" fill-rule="evenodd"/><path clip-rule="evenodd" d="M51.642,58.841v38.286c0,2.274,1.845,4.117,4.116,4.117h4.705   v11.658c0,2.962,2.364,5.363,5.28,5.363c2.915,0,5.28-2.401,5.28-5.363v-11.658h8.217v11.658c0,2.962,2.365,5.363,5.28,5.363   c2.916,0,5.279-2.401,5.279-5.363v-11.658h4.703c2.274,0,4.119-1.843,4.119-4.117V58.841H51.642z" fill="#FFFFFF" fill-rule="evenodd"/><path clip-rule="evenodd" d="M86.163,39.004l4.34-6.301c0.258-0.374,0.194-0.866-0.144-1.098   c-0.336-0.231-0.817-0.116-1.076,0.258l-4.509,6.544c-2.97-1.171-6.271-1.823-9.748-1.823s-6.776,0.652-9.746,1.823l-4.509-6.544   c-0.259-0.374-0.74-0.489-1.076-0.258c-0.338,0.232-0.401,0.724-0.144,1.098l4.34,6.301c-6.9,3.21-11.738,9.308-12.355,16.426   h46.98C97.901,48.312,93.063,42.214,86.163,39.004 M65.116,48.931c-1.436,0-2.598-1.164-2.598-2.598c0-1.437,1.162-2.6,2.598-2.6   c1.437,0,2.601,1.163,2.601,2.6C67.717,47.768,66.553,48.931,65.116,48.931 M85.263,48.931c-1.435,0-2.601-1.164-2.601-2.598   c0-1.437,1.166-2.6,2.601-2.6c1.436,0,2.6,1.163,2.6,2.6C87.862,47.768,86.698,48.931,85.263,48.931" fill="#FFFFFF" fill-rule="evenodd"/></g></svg>